<!--<?xml version="2.0" encoding="UTF-8" standalone="yes"?>-->
<svg #map_container version="1.2" id="map_container" [attr.width]="this.canvasDimensions[0]" [attr.height]="this.canvasDimensions[1]" [attr.viewBox]="svgDimensions" xlink="http://www.w3.org/1999/xlink" xmlns="http://www.w3.org/2000/svg">
 <defs>
    <symbol id="Irbid">
      <path d="m 261.29984,235.29994 2.8,22.3 -1.6,7.1 -1.6,0.6 -2.1,-0.5 -4.2,-3.3 -2.6,-0.9 -2.8,0.5 -3.3,2.7 -0.8,2.2 0.3,2.3 1.2,2.2 1.2,2.7 0.7,4 -0.3,2.1 -1.8,2.4 -7.6,-0.4 -7.2,-2 -3,0.9 -7.9,3.4 -5,-7 -4.5,-3.7 -1.1,-2.2 -1,-3.6 -1.6,-0.7 -1.6,1.1 -1.6,2.3 -2.8,1.6 -3.7,0.6 -6.7,-0.4 -3.8,0.7 -7,3.9 -5.5,1.6 -5.8,-0.4 -4,0.3 -3.2,1.4 -2.3,2.9 -1.6,4.2 -3.5,17 0.4,4.1 1.3,4.4 3.2,7.4 0.6,2.3 -0.2,1.6 -1,2.7 -16,-1.9 -1.5,0.1 3,-12.8 h -3 l 1,-2.5 2,-1.4 -1.8,-3.2 -0.9,-5.1 0.1,-5.2 1,-3.2 -2.1,-4 0.2,-8.2 -1.2,-2.6 v -1.9 h 1.7 v 1.9 h 1.4 l -0.4,-2.5 -0.7,-2.1 -0.9,-1.7 -1.7,-2.1 -1,-3 2.2,-0.4 1,-0.8 -0.2,-1.1 -1.4,-1.4 v -1.7 h 1.7 l -0.4,-1.2 -1.3,-0.6 3.1,-2.1 -1.4,-1.8 3,-1.7 v -2 l -1,-0.2 -2,-1.5 0.4,-1.8 0.9,-1.9 1.4,-1.5 2,-0.6 v -1.7 l -2.1,-2.2 -0.5,-1.2 -1.7,-2.4 -2.1,0.1 v -1.9 h 3.1 l -0.6,-1.7 -0.8,-5.7 1.4,1.8 1.1,-2.9 1.3,0.5 0.9,-1.5 -1.3,-3.3 -0.7,-7.1 -1.3,-2.4 v -2.1 h 1.6 v -1.7 l -1.9,-1.1 -1,-2 0.2,-2.2 0.5,-0.9 1.6,-0.7 2,-1.8 3.5,-4.7 4.2,-3 5.5,0.6 3.7,-1.9 7.6,-6.8 12.6,-8 4,-1.1 2.8,-1 1.2,0.2 1,0.8 2.1,2.7 24.7,5.8 2.2,1.3 3.9,4 1.2,0.4 h 2.9 l 0.9,0.5 0.4,1.8 -0.3,1.8 -0.8,1.1 1.3,2.5 2,1.9 2.4,0.8 3.3,-0.6 5.4,0.4 1,3.1 -0.6,4.7 0.1,5.1 2.2,4.6 10.3,15.7 1.3,3.2 0.1,1.2 z" />
    </symbol>
    <symbol id="Ajloun">
      <path d="m 220.69984,283.59994 -4.9,2.7 -2.5,1.1 -3.6,2.3 -3.6,3.7 -3.9,6.1 -1.6,4.5 -0.6,3.8 0.2,2.6 -0.6,2.4 -2,2.3 -15.7,7.2 -9.6,10.9 -6,-1.2 -3.9,-1.6 -3.7,-4.7 1,-2.7 0.2,-1.6 -0.6,-2.3 -3.2,-7.4 -1.3,-4.4 -0.4,-4.1 3.5,-17 1.6,-4.2 2.3,-2.9 3.2,-1.4 4,-0.3 5.8,0.4 5.5,-1.6 7,-3.9 3.8,-0.7 6.7,0.4 3.7,-0.6 2.8,-1.6 1.6,-2.3 1.6,-1.1 1.6,0.7 1,3.6 1.1,2.2 4.5,3.7 z" />
    </symbol>
    <symbol id="Jerash">
      <path d="m 246.39984,281.69994 -3.2,6.6 -10.5,11.8 -2.2,4.3 -0.2,2.6 1.1,1.9 1.9,1.3 1.6,1.4 3,5.1 2.4,5.5 -0.8,5.7 -1.1,2.4 -2,2.1 -3,1.4 -3.6,2.1 -2.7,2.2 -8.6,11.5 -8.4,-6.3 -1.7,-2.3 -2.6,-2.6 -3.3,-1.4 -4.5,-0.8 -20,0.5 -3,-0.3 -2.4,-0.9 -0.3,-2.3 9.6,-10.9 15.7,-7.2 2,-2.3 0.6,-2.4 -0.2,-2.6 0.6,-3.8 1.6,-4.5 3.9,-6.1 3.6,-3.7 3.6,-2.3 2.5,-1.1 4.9,-2.7 7.9,-3.4 3,-0.9 7.2,2 z" />
    </symbol>
    <symbol id="Mafraq">
      <path d="m 647.19984,457.79994 -0.4,-0.2 -285.3,-99.2 -8.1,-4.7 -7.3,-6.9 -4,-2.2 -12.5,-1.3 -4.2,0.4 -3,1.4 -2.4,1.8 -2.9,1.4 -3.5,0.1 -3.5,-1.1 -4.1,-2.9 -9.2,-4.6 -9.3,-0.9 -2.9,0.4 -2.4,0.5 -4.8,2 -3.1,0.3 -3.6,-1 -5.6,-4.3 -2.9,-1.8 -2.2,-0.3 -3.2,3.2 -2.3,1.2 -2.7,0.6 -2.5,-0.4 -2.3,-1.7 -1.2,-1.8 -0.1,-2.6 0.6,-2 1.1,-1.6 0.3,-1.8 -0.8,-1.9 -2,-2.1 -4.6,-1.6 -2.4,-5.5 -3,-5.1 -1.6,-1.4 -1.9,-1.3 -1.1,-1.9 0.2,-2.6 2.2,-4.3 10.5,-11.8 3.2,-6.6 1.8,-2.4 0.3,-2.1 -0.7,-4 -1.2,-2.7 -1.2,-2.2 -0.3,-2.3 0.8,-2.2 3.3,-2.7 2.8,-0.5 2.6,0.9 4.2,3.3 2.1,0.5 1.6,-0.6 1.6,-7.1 -2.8,-22.3 3.3,0.1 8.5,-1.2 1.4,0.2 2.4,0.9 1.4,0.3 1.1,-0.6 2.6,-2.4 1.2,-0.3 2.5,1.3 7.5,7.6 14.8,10.2 20.2,19.2 3.4,2 4.5,1.4 13,1.3 3.7,2.3 39.8,4.9 8.3,6.3 4,-2.4 5,0.2 14.7,3.9 3.2,0.1 3,-1 36.9,-25.4 35.2,-23 25.5,-16.3 39.3,-25.3 39.4,-25.3 39.4,-25.4 39.4,-25.4 29.2,-18.9 40,-25.199996 68.7,-43.4 56.3,-34.99999975 10.7,39.19999975 9.5,35.3 8,29.099996 10.4,38.9 26.3,97.1 -18,5.7 0.3,1 11.2,39.1 1.7,4.1 2.3,1.3 43.6,-12 4.7,2.7 3.4,8.4 4.8,18.3 -5.9,8.6 -27.6,23.7 v 2 l -2.3,0.8 -4.5,3.4 -27.3,26 -7.9,3.4 -26.1,7.6 -51.7,15 -51.7,15.1 -51.6,15 -51.7,14.9 z" />
    </symbol>
    <symbol id="Zarqa">
      <path d="m 647.19984,457.79994 -70.4,21.2 -105,31.5 -0.8,-0.4 -64.4,-66 -4.3,-1 -3.9,1.1 -10.9,6.7 -4.3,0.1 -5.4,-2 -10,-6.8 -10.3,-9.7 -6.2,-7.1 -1.4,-2.9 0.3,-2.6 1.8,-2.4 5.1,-4.2 6.5,-4.1 2.1,-3.3 -0.4,-4.3 -6.6,-8.6 -13,-14.3 -4.8,-4.1 -4.8,-2.1 -24.3,-2.2 -4.9,1.1 -2.8,2.4 -4.3,5.3 -3,1.9 -4.7,0.9 -14.8,-0.1 -11.3,3.6 -3.7,0.3 -2.8,0.6 -4.5,2.6 -3.1,-1 -4.4,-3.2 -7.8,-9.5 -5.5,-5.1 -5.3,-6.9 -4.5,-2.7 -1.5,-0.7 -3.1,-3.2 -1.3,-7 8.6,-11.5 2.7,-2.2 3.6,-2.1 3,-1.4 2,-2.1 1.1,-2.4 0.8,-5.7 4.6,1.6 2,2.1 0.8,1.9 -0.3,1.8 -1.1,1.6 -0.6,2 0.1,2.6 1.2,1.8 2.3,1.7 2.5,0.4 2.7,-0.6 2.3,-1.2 3.2,-3.2 2.2,0.3 2.9,1.8 5.6,4.3 3.6,1 3.1,-0.3 4.8,-2 2.4,-0.5 2.9,-0.4 9.3,0.9 9.2,4.6 4.1,2.9 3.5,1.1 3.5,-0.1 2.9,-1.4 2.4,-1.8 3,-1.4 4.2,-0.4 12.5,1.3 4,2.2 7.3,6.9 8.1,4.7 285.3,99.2 z" />
    </symbol>
    <symbol id="Balqa">
      <path d="m 158.69984,325.69994 3.7,4.7 3.9,1.6 6,1.2 0.3,2.3 2.4,0.9 3,0.3 20,-0.5 4.5,0.8 3.3,1.4 2.6,2.6 1.7,2.3 8.4,6.3 1.3,7 3.1,3.2 1.5,0.7 4.5,2.7 -6.7,2.2 -7.2,7 -3.6,2.1 -8.7,2.7 -3.5,2.8 -10.3,12.3 -5.8,4.2 -13.3,6.9 -3.5,3.1 -1.6,3 0.5,2.4 1.6,1.9 2.5,1.3 3,0.9 5.3,0.9 1.3,1.4 0.4,2.3 -2.9,8.3 -0.6,2.9 -0.4,4.8 -2.9,1.8 -6.2,0.5 -2.8,0.9 -2.8,1.8 -1.4,1.9 -2.7,7.2 -3.8,6.9 -2.9,2.8 -3.2,1.5 -1.8,-0.1 0.7,-5.4 2.2,-7.9 -0.4,-6 -6.2,-3.4 -4.9,-14.6 v -2 l 2.5,-3.4 -5.6,-21.6 0.7,-2.2 3,-1.3 1,-1.2 0.2,-2.2 -1.4,-3 -0.4,-2.2 -0.1,-3.7 -0.5,-2.9 -2.5,-6.4 -0.4,-12.5 1.2,-4.7 3.9,-3.2 -2.4,-3.3 0.1,-3.2 3.9,-6.6 -1.2,-1.7 v -1.5 l 1,-1.2 1.9,-1 v -2 l -1,-3.2 1,-4.4 1.5,-0.1 z" />
    </symbol>
    <symbol id="Madaba">
      <path d="m 200.59984,536.09994 -10.3,-2.4 -4.8,-0.1 -7.8,0.8 -7.1,2.2 h -3.2 l -4.4,-0.9 -20.8,-7 1.9,-9.4 -0.8,-7.7 -3.2,-11.2 4.8,-38.6 1.8,0.1 3.2,-1.5 2.9,-2.8 3.8,-6.9 2.7,-7.2 1.4,-1.9 2.8,-1.8 2.8,-0.9 6.2,-0.5 2.9,-1.8 8.6,-2.3 h 11.7 l 3.5,-0.9 2.9,-1.2 1.5,0.3 1.7,1.5 0.5,19.6 -0.5,2.5 -1.4,2.5 -3.9,4.8 -1.2,2 -0.3,2.4 0.4,2.6 1.8,6.9 1.7,4.3 10,10.8 1.3,3.4 -0.1,2.6 -0.8,1.9 0.2,2.2 1.3,1.6 1.9,1.8 0.4,1.7 -0.7,1.7 -3.2,4.6 -1.5,2.9 -4,12.2 -0.9,1.8 -1.8,1.8 -1.4,1.1 z" />
    </symbol>
    <symbol id="Amman">
      <path d="m 471.79984,510.49994 -8.8,2.7 29.9,32.5 30.3,33.1 -245.9,-0.4 -69.5,-1.7 -2.3,-2 -0.8,-3.3 0.6,-5.2 0.8,-3.8 1.9,-5.4 0.4,-2.4 -0.6,-3.5 -1.6,-5.2 -5.6,-9.8 2.5,-2.4 1.4,-1.1 1.8,-1.8 0.9,-1.8 4,-12.2 1.5,-2.9 3.2,-4.6 0.7,-1.7 -0.4,-1.7 -1.9,-1.8 -1.3,-1.6 -0.2,-2.2 0.8,-1.9 0.1,-2.6 -1.3,-3.4 -10,-10.8 -1.7,-4.3 -1.8,-6.9 -0.4,-2.6 0.3,-2.4 1.2,-2 3.9,-4.8 1.4,-2.5 0.5,-2.5 -0.5,-19.6 -1.7,-1.5 -1.5,-0.3 -2.9,1.2 -3.5,0.9 h -11.7 l -8.6,2.3 0.4,-4.8 0.6,-2.9 2.9,-8.3 -0.4,-2.3 -1.3,-1.4 -5.3,-0.9 -3,-0.9 -2.5,-1.3 -1.6,-1.9 -0.5,-2.4 1.6,-3 3.5,-3.1 13.3,-6.9 5.8,-4.2 10.3,-12.3 3.5,-2.8 8.7,-2.7 3.6,-2.1 7.2,-7 6.7,-2.2 5.3,6.9 5.5,5.1 7.8,9.5 4.4,3.2 3.1,1 4.5,-2.6 2.8,-0.6 3.7,-0.3 11.3,-3.6 14.8,0.1 4.7,-0.9 3,-1.9 4.3,-5.3 2.8,-2.4 4.9,-1.1 24.3,2.2 4.8,2.1 4.8,4.1 13,14.3 6.6,8.6 0.4,4.3 -2.1,3.3 -6.5,4.1 -5.1,4.2 -1.8,2.4 -0.3,2.6 1.4,2.9 6.2,7.1 10.3,9.7 10,6.8 5.4,2 4.3,-0.1 10.9,-6.7 3.9,-1.1 4.3,1 64.4,66 z" />
    </symbol>
    <symbol id="Karak">
      <path d="m 200.59984,536.09994 5.6,9.8 1.6,5.2 0.6,3.5 -0.4,2.4 -1.9,5.4 -0.8,3.8 -0.6,5.2 0.8,3.3 2.3,2 69.5,1.7 3.9,26.4 5.4,14.9 -11.8,37.5 -26.9,50.3 -9.8,-9.9 -9.8,-7.3 -1.8,-2 -2.4,-4 -1.8,-2 -2.4,-1.4 -8.3,-3.9 -2.9,-2.1 -2.1,-2 -1.6,-3.6 -1.6,-1.3 -36.8,-14.8 -19.6,-1 -3.3,-1.3 -3.2,-2.1 -2.6,-2.3 -2.6,-0.7 -2.9,-0.2 -4.1,0.6 -2.9,-0.2 -2.2,0.7 -1.4,2.1 -1,5.5 -2.3,6.9 -1.5,10.9 -1.5,2.7 -2.5,1.5 -4.1,-0.3 -3.2,-0.8 -13.299995,-9.3 6.2,-6.1 2.599995,-4.8 -0.1,-8.4 1.5,-7.9 9.2,-18.1 6.4,1.1 3.9,0.3 2.1,-0.6 5.7,-4.1 1.7,-1.7 -0.2,-1.7 -1,-1.7 -0.7,-2.4 -1.3,-2 0.8,-1.5 4.7,-5 0.8,-1.7 -1.1,-5.1 -3.5,-2.9 -8.1,-3 -3.4,-2.3 -9.2,-8.7 -3.7,4.2 -0.9,1.4 -1.2,-7.2 2.8,-6.6 3.3,-5.6 0.4,-5.8 4.2,0.6 11.2,-12 4.4,-0.2 0.5,3.6 -2.6,9.7 0.6,3.2 2.1,0.4 2.5,-1.5 3.8,-3.5 1.7,-2.3 v -1.8 l -0.6,-1.9 -0.1,-2.3 4.4,-21.3 20.8,7 4.4,0.9 h 3.2 l 7.1,-2.2 7.8,-0.8 4.8,0.1 z" />
    </symbol>
    <symbol id="Tafilah">
      <path d="m 247.89984,707.49994 -17.5,29.6 -8.4,3.1 -6.1,-2.4 -2.4,-0.2 -2.5,0.5 -2.9,2 -2.2,2.3 -3.3,2 -16.3,4 -21.4,2.9 -7.9,-0.7 -22.8,0.7 -9.4,-1.4 h -9.2 l -5.2,-0.2 -2.6,-1 -3.3,-1.6 -2.8,-3.7 -2.699995,-4.8 -3,-2.7 -3.6,-1.8 -15.7,-11.3 -3.4,-2.7 1.7,-6.3 1.1,-6.8 0.8,-3 1.5,-3.2 1.8,-2.1 3.9,-3.5 1.3,-2.6 0.8,-5.9 -0.1,-6 0.6,-6.1 2.9,-6 2.8,-2.7 13.299995,9.3 3.2,0.8 4.1,0.3 2.5,-1.5 1.5,-2.7 1.5,-10.9 2.3,-6.9 1,-5.5 1.4,-2.1 2.2,-0.7 2.9,0.2 4.1,-0.6 2.9,0.2 2.6,0.7 2.6,2.3 3.2,2.1 3.3,1.3 19.6,1 36.8,14.8 1.6,1.3 1.6,3.6 2.1,2 2.9,2.1 8.3,3.9 2.4,1.4 1.8,2 2.4,4 1.8,2 9.8,7.3 z" />
    </symbol>
    <symbol id="Ma'an">
      <path d="m 523.19984,578.79994 59.4,64.4 28.1,33.2 25.2,29.8 25.3,29.7 36.5,43.1 -1.8,1.3 -16.8,9.5 -52.7,29.7 -5.3,4.4 -3,4.9 -6.8,16.5 -15.8,38.6 -10.2,25 -5,4.4 -57.8,12.1 -65.9,13.7 -40.4,8.5 -6.3,3.1 -5.5,6 -12.7,21.6 -24.9,42.29996 -14.7,25.1 -68.8,57 -24.9,20.6 -5.9,2.5 -6.3,0.2 -50.4,-8.7 -13,-2.3 -0.6,-2.3 -11.4,-83.6 -14.9,-60.79996 -12.1,-27.5 -3.4,-5.3 -4.1,-4.4 -4.5,-4 -4.5,-2.5 -4.2,-1.6 -6.9,-1.3 -5.9,0.2 -3,0.6 -2.9,1.1 -3.5,0.4 -3.599995,-0.2 -3.8,-1.2 -3.1,-1.9 -2.9,-2.6 -2.1,-2.8 -1.7,-3 -1.3,-2.6 -1,-5 0.5,-7 2.6,-13.2 13.5,-26.6 1.8,-7.8 -0.4,-29.9 10.199995,-32.5 4.7,-21.1 1.3,-16.7 h 9.2 l 9.4,1.4 22.8,-0.7 7.9,0.7 21.4,-2.9 16.3,-4 3.3,-2 2.2,-2.3 2.9,-2 2.5,-0.5 2.4,0.2 6.1,2.4 8.4,-3.1 17.5,-29.6 26.9,-50.3 11.8,-37.5 -5.4,-14.9 -3.9,-26.4 z" />
    </symbol>
    <symbol id="Aqaba">
      <path d="m 115.59984,749.89994 -1.3,16.7 -4.7,21.1 -10.199995,32.5 0.4,29.9 -1.8,7.8 -13.5,26.6 -2.6,13.2 -0.5,7 1,5 1.3,2.6 1.7,3 2.1,2.8 2.9,2.6 3.1,1.9 3.8,1.2 3.599995,0.2 3.5,-0.4 2.9,-1.1 3,-0.6 5.9,-0.2 6.9,1.3 4.2,1.6 4.5,2.5 4.5,4 4.1,4.4 3.4,5.3 12.1,27.5 14.9,60.79996 11.4,83.6 0.6,2.3 -27.2,-4.7 -34.1,-5.9 -31.999995,-5.6 -35.7,-6.2 -27.3,-4.7 -25.50000005,-4.5 2.99999995,-2.1 1.5,-24.1 1.6,-6.9 5.0000001,-10.8 -0.2,-4.2 -4.8000001,-4.8 h -3.1 l -0.2,-1.6 -1.4,-0.2 1,-7.2 1.6,-5.8 3.1,-5 2.2000001,-6.6 1.2,-14.89996 1.7,-6.6 10.7,-28.9 1,-5.4 0.2,-16.1 1.7,-9 0.9,-2.3 1.1,-2 0.9,-2.4 0.1,-3.2 2.7,-10.4 9.8,-14.8 3.7,-9 v -8.4 l -4.7,-16.2 0.1,-7.6 1.6,-4.6 2.2,-13.9 1.4,-3.3 1.5,-2.7 1.3,-2.9 0.5,-3.7 -0.7,-3.8 -3.3,-5.4 -1.1,-2.7 v -6.4 l 4,-10.9 1.1,-6.3 9.9,-32.7 13.5,-27.5 3.4,2.7 15.7,11.3 3.6,1.8 3,2.7 2.699995,4.8 2.8,3.7 3.3,1.6 2.6,1 z" />
    </symbol>

    <!--Pins-->
    <symbol id="pin">
      <path d="M 146.667 0 C 94.903052 0 52.946214 41.956838 52.946214 93.720786 C 52.946214 116.04276 60.794965 136.50987 73.836952 152.59885 C 78.040947 157.77684 85.073984 165.93015 88.73998 171.50514 C 109.84896 203.57411 136.93021 250.14799 144.8222 288.36895 C 146.1762 294.89594 147.80825 295.00992 149.56525 288.58093 C 155.19424 267.97195 169.79296 222.94218 199.94193 175.82423 C 203.53692 170.20523 210.82628 162.34101 215.35127 157.44502 C 221.90526 150.34703 227.3597 142.22097 231.50469 133.36098 C 237.15569 121.27499 240.38707 107.89523 240.38707 93.732244 C 240.38707 41.962296 198.42995 6.9475378e-15 146.667 0 z M 146.667 39.738306 C 175.55897 39.738306 198.98014 63.15903 198.98014 92.045001 C 198.98014 120.93797 175.55897 144.35814 146.667 144.35814 C 117.77503 144.35814 94.35386 120.93697 94.35386 92.045001 C 94.35386 63.15803 117.77503 39.738306 146.667 39.738306 z M 146.667 68.440064 A 21.756001 21.756001 0 0 0 124.91116 90.195908 A 21.756001 21.756001 0 0 0 146.667 111.95175 A 21.756001 21.756001 0 0 0 168.42284 90.195908 A 21.756001 21.756001 0 0 0 146.667 68.440064 z "/>
    </symbol>

  </defs>

  <g *ngIf="selected !== null">
    <rect class="background" (click)="onClose()"/>
  </g>
  
  <g #map_element id="map_element">
    
    <g *ngIf="selected !== null; then citymap; else fullmap"></g>
    
    <ng-template #citymap>
      <use class="city-map-symbol" [attr.href]="'#' + selected"></use>
      <g #points_element id="points_element"></g>
    </ng-template>

    <ng-template #fullmap>
      <use class="full-map-symbol" id="Irbid"   href="#Irbid"   (click)="onClick($event)"></use>
      <use class="full-map-symbol" id="Ajloun"  href="#Ajloun"  (click)="onClick($event)"></use>
      <use class="full-map-symbol" id="Jerash"  href="#Jerash"  (click)="onClick($event)"></use>
      <use class="full-map-symbol" id="Mafraq"  href="#Mafraq"  (click)="onClick($event)"></use>
      <use class="full-map-symbol" id="Zarqa"   href="#Zarqa"   (click)="onClick($event)"></use>
      <use class="full-map-symbol" id="Balqa"   href="#Balqa"   (click)="onClick($event)"></use>
      <use class="full-map-symbol" id="Madaba"  href="#Madaba"  (click)="onClick($event)"></use>
      <use class="full-map-symbol" id="Amman"   href="#Amman"   (click)="onClick($event)"></use>
      <use class="full-map-symbol" id="Karak"   href="#Karak"   (click)="onClick($event)"></use>
      <use class="full-map-symbol" id="Tafilah" href="#Tafilah" (click)="onClick($event)"></use>
      <use class="full-map-symbol" id="Ma'an"    href="#Ma'an"    (click)="onClick($event)"></use>
      <use class="full-map-symbol" id="Aqaba"   href="#Aqaba"   (click)="onClick($event)"></use>

      <text class="text" id="Aqaba" y="976.64771">
        <tspan x="65.5382" dy="1em">Aqaba</tspan>
        <tspan x="65.5382" dy="1em">العقبة</tspan>
      </text>
      <text class="text" id="Tafilah" y="706.98346">
        <tspan x="155.73346" dy="1em">Tafilah</tspan
        ><tspan x="155.73346" dy="1em">الطفيلة</tspan>
      </text>
      <text class="text" id="Karak" y="604.21448">
        <tspan x="184.30124" dy="1em">Karak</tspan>
        <tspan x="184.30124" dy="1em">الكرك</tspan>
      </text>
      <text class="text" id="Ma'an" y="799.61835">
        <tspan x="380.2308" dy="1em">Ma'an</tspan>
        <tspan x="380.2308" dy="1em">معان</tspan>
      </text>
      <text class="text" id="Mafraq" y="279.14255">
        <tspan x="690.28149" dy="1em">Mafraq</tspan>
        <tspan x="690.28149" dy="1em">المفرق</tspan>
      </text>
      <text class="text" id="Zarqa" y="429.27283">
        <tspan x="451.92532" dy="1em">Zarqa</tspan>
        <tspan x="451.92532" dy="1em">الزرقاء</tspan>
      </text>
      <text class="text" id="Jerash" y="310.01941">
        <tspan x="216.49487" dy="1em">Jerash</tspan>
        <tspan x="216.49487" dy="1em">جرش</tspan>
      </text>
      <text class="text" id="Ajloun" y="286.92792">
        <tspan x="180.10205" dy="1em">Ajloun</tspan>
        <tspan x="180.10205" dy="1em">عجلون</tspan>
      </text>
      <text class="text" id="Irbid" y="232.8291">
        <tspan x="190.3667" dy="1em">Irbid</tspan>
        <tspan x="190.3667" dy="1em">اربد</tspan>
      </text>
      <text class="text" id="Balqa" y="370.81256">
        <tspan x="167.62715" dy="1em">Balqa</tspan>
        <tspan x="167.62715" dy="1em">البلقاء</tspan>
      </text>
      <text class="text" id="Madaba" y="489.09317">
        <tspan x="173.45537" dy="1em">Madaba</tspan>
        <tspan x="173.45537" dy="1em">مأدبا</tspan>
      </text>
      <text class="text" id="Amman" y="491.63885">
        <tspan x="306.26358" dy="1em">Amman</tspan>
        <tspan x="306.26358" dy="1em">عمان</tspan>
      </text>
    </ng-template>
  </g>
</svg>
